# xmcd
#
# Track frame offsets:
#	150
#	15296
#	25413
#	36087
#	46075
#	56014
#	67063
#	78432
#	90768
#	103415
#	115679
#	132168
#	140538
#	153046
#	165263
#	177460
#	193449
#	206512
#	220848
#	233003
#	245828
#	256772
#	272532
#	286290
#	296864
#	308264
#
# Disc length: 4250
#
# Revision: 1
# Processed by: cddbd v1.5.1PL0 Copyright (c) Steve Scherf et al.
# Submitted via: EasyCDDAExtractor 4.6.0.1
# Normalized: r0:TDELIM( - )
#
DISCID=6710981a
DTITLE=Various Artist - The Dark Ages (Our Music From The Beginning)
DYEAR=2003
DGENRE=Blues
TTITLE0=Deep River Boys - Unchained Melody
TTITLE1=Deep River Boys - Melody Of Love
TTITLE2=Deep River Boys - Royal Garden Blues
TTITLE3=Deep River Boys - Get Happy
TTITLE4=Southlanders - Torero
TTITLE5=Southlanders - I Wanna Jive Tonight
TTITLE6=Delta Rhythm Boys - My Blue Heaven
TTITLE7=Peacemakers - When I Go
TTITLE8=Peacemakers - I Know What I Believe
TTITLE9=Golden Gate Quartet - Silent Night
TTITLE10=Golden Gate Quartet - White Christmas
TTITLE11=Five Keys - It's A Groove
TTITLE12=Ink Spots - Charmaine
TTITLE13=Four Tunes - You're Heartless
TTITLE14=Metronomes - Pennies From Heaven
TTITLE15=Metronomes - Fools Rush In
TTITLE16=Deep River Boys - Good Evening Friends (live)
TTITLE17=Deep River Boys - Twilight Time (live)
TTITLE18=Deep River Boys - He's Got The Whole World In His Hands (live)
TTITLE19=Deep River Boys - Valse Potpourri (live)
TTITLE20=Four Knights - I Don't Want To Set The World On Fire
TTITLE21=Four Knights - People Like You
TTITLE22=Trumpeteers - Little Wooden Church
TTITLE23=Trumpeteers - Blind Barnabas
TTITLE24=Deep River Boys - Timber's Gotta Roll
TTITLE25=Deep River Boys - I Don't Know Why
EXTD=
EXTT0=
EXTT1=
EXTT2=
EXTT3=
EXTT4=
EXTT5=
EXTT6=
EXTT7=
EXTT8=
EXTT9=
EXTT10=
EXTT11=
EXTT12=
EXTT13=
EXTT14=
EXTT15=
EXTT16=
EXTT17=
EXTT18=
EXTT19=
EXTT20=
EXTT21=
EXTT22=
EXTT23=
EXTT24=
EXTT25=
PLAYORDER=
